<svg xmlns="http://www.w3.org/2000/svg" version="1.1" xmlns:xlink="http://www.w3.org/1999/xlink" xmlns:svgjs="http://svgjs.com/svgjs" width="1440" height="560" preserveAspectRatio="none" viewBox="0 0 1440 560"><g mask="url(&quot;#SvgjsMask1000&quot;)" fill="none"><rect width="1440" height="560" x="0" y="0" fill="#1e3266"></rect><path d="M1464 560L0 560 L0 349.3Q42.82 320.12, 72 362.94Q77.13 296.06, 144 301.19Q198.17 235.36, 264 289.52Q356.88 262.4, 384 355.29Q418.67 269.96, 504 304.63Q571.66 252.29, 624 319.96Q680.74 304.69, 696 361.43Q748.58 294.01, 816 346.6Q890.17 300.77, 936 374.95Q936.24 303.19, 1008 303.42Q1034.38 257.81, 1080 284.19Q1140.25 272.44, 1152 332.69Q1217.7 278.39, 1272 344.1Q1283.88 283.98, 1344 295.85Q1398.83 230.68, 1464 285.5z" fill="#182f5d"></path><path d="M1560 560L0 560 L0 413.88Q49.77 343.65, 120 393.42Q134.94 336.36, 192 351.3Q234.58 321.88, 264 364.47Q358.78 339.25, 384 434.04Q431.6 361.64, 504 409.25Q536.37 321.62, 624 353.99Q704.5 314.5, 744 395Q793.28 324.28, 864 373.57Q918.35 355.91, 936 410.26Q985.52 339.78, 1056 389.31Q1121.09 382.39, 1128 447.48Q1149.42 348.9, 1248 370.33Q1317.21 319.54, 1368 388.75Q1418.63 367.38, 1440 418.01Q1509.04 367.05, 1560 436.09z" fill="#25467d"></path><path d="M1488 560L0 560 L0 476.45Q29.37 433.81, 72 463.18Q90.63 409.81, 144 428.45Q192.05 404.5, 216 452.54Q269.61 434.15, 288 487.76Q338.78 418.54, 408 469.32Q432.62 421.94, 480 446.56Q545.33 391.89, 600 457.22Q621.01 406.24, 672 427.25Q756.7 391.95, 792 476.65Q842.46 455.11, 864 505.56Q890.11 411.66, 984 437.77Q1031.9 413.67, 1056 461.58Q1126.92 412.5, 1176 483.43Q1208.55 395.98, 1296 428.53Q1339.98 400.51, 1368 444.49Q1450.65 407.14, 1488 489.8z" fill="#356cb1"></path><path d="M1512 560L0 560 L0 524.06Q36.85 488.9, 72 525.75Q160.07 493.82, 192 581.88Q219.41 537.29, 264 564.7Q278.45 507.15, 336 521.6Q390.74 456.34, 456 511.08Q507.24 442.32, 576 493.56Q661.7 459.26, 696 544.96Q762.46 491.42, 816 557.88Q890.53 512.41, 936 586.95Q936.71 515.66, 1008 516.37Q1037.92 474.3, 1080 504.22Q1137.7 489.92, 1152 547.62Q1230.06 505.68, 1272 583.74Q1306.8 498.54, 1392 533.34Q1435.91 457.25, 1512 501.17z" fill="white"></path></g><defs><mask id="SvgjsMask1000"><rect width="1440" height="560" fill="#ffffff"></rect></mask></defs></svg>